<svg xmlns="http://www.w3.org/2000/svg" version="1.1" xmlns:xlink="http://www.w3.org/1999/xlink" xmlns:svgjs="http://svgjs.dev/svgjs" width="1000" height="623" viewBox="0 0 1000 623"><g transform="matrix(1,0,0,1,-0.6060606060606233,0.2522267206477977)"><svg viewBox="0 0 396 247" data-background-color="#ffffff" preserveAspectRatio="xMidYMid meet" height="623" width="1000" xmlns="http://www.w3.org/2000/svg" xmlns:xlink="http://www.w3.org/1999/xlink"><g id="tight-bounds" transform="matrix(1,0,0,1,0.2400000000000091,-0.09999999999999432)"><svg viewBox="0 0 395.52 247.2" height="247.2" width="395.52"><g><svg></svg></g><g><svg viewBox="0 0 395.52 247.2" height="247.2" width="395.52"><g mask="url(#dd466b68-485f-4dcd-b6c2-9e18422f5bd5)"><g><path xmlns="http://www.w3.org/2000/svg" d="M139.102 39.105v168.99c2.56 0.233 5.936 0.396 10.126 0.489 4.19 0.14 9.893 0.209 17.108 0.209v0c29.562 0 51.628-7.518 66.2-22.555 14.525-14.99 21.787-35.986 21.787-62.987v0c0-27.467-7.099-48.532-21.299-63.197-14.199-14.664-36.195-21.997-65.989-21.996v0c-13.035 0-22.346 0.349-27.933 1.047zM300.411 123.251v0c0 20.949-3.259 39.152-9.776 54.607-6.518 15.502-15.758 28.421-27.723 38.756-12.011 10.381-26.442 18.063-43.295 23.044-16.899 5.028-35.59 7.542-56.074 7.542v0c-9.776 0-20.833-0.396-33.169-1.187-12.337-0.838-24.092-2.537-35.265-5.098v0-234.979c11.173-2.56 23.044-4.19 35.614-4.889 12.569-0.698 23.742-1.047 33.518-1.047v0c20.251 0 38.756 2.374 55.516 7.123 16.759 4.795 31.144 12.244 43.155 22.345 11.964 10.149 21.205 22.951 27.723 38.407 6.518 15.502 9.776 33.961 9.776 55.376z" fill="#e65728" fill-rule="nonzero" stroke="none" stroke-width="1" stroke-linecap="butt" stroke-linejoin="miter" stroke-miterlimit="10" stroke-dasharray="" stroke-dashoffset="0" font-family="none" font-weight="none" font-size="none" text-anchor="none" style="mix-blend-mode: normal" data-fill-palette-color="tertiary"></path></g></g><g transform="matrix(1,0,0,1,0,79.16171206225681)"><svg viewBox="0 0 395.52 88.87657587548637" height="88.87657587548637" width="395.52"><g><svg viewBox="0 0 395.52 88.87657587548637" height="88.87657587548637" width="395.52"><g><svg viewBox="0 0 395.52 88.87657587548637" height="88.87657587548637" width="395.52"><g><svg viewBox="0 0 395.52 88.87657587548637" height="88.87657587548637" width="395.52"><g id="textblocktransform"><svg viewBox="0 0 395.52 88.87657587548637" height="88.87657587548637" width="395.52" id="textblock"><g><svg viewBox="0 0 395.52 88.87657587548637" height="88.87657587548637" width="395.52"><g transform="matrix(1,0,0,1,0,0)"><svg width="395.52" viewBox="-1.3499999046325684 -40.95000076293945 206.5900115966797 47.20000076293945" height="88.87657587548637" data-palette-color="#e65728"><path d="M10.45-29.4L10.45-5.2Q11-5.15 11.9-5.13 12.8-5.1 14.35-5.1L14.35-5.1Q20.7-5.1 23.83-8.33 26.95-11.55 26.95-17.35L26.95-17.35Q26.95-23.25 23.9-26.4 20.85-29.55 14.45-29.55L14.45-29.55Q11.65-29.55 10.45-29.4L10.45-29.4ZM33.55-17.35L33.55-17.35Q33.55-12.85 32.15-9.53 30.75-6.2 28.18-3.98 25.6-1.75 21.98-0.68 18.35 0.4 13.95 0.4L13.95 0.4Q11.85 0.4 9.2 0.23 6.55 0.05 4.15-0.5L4.15-0.5 4.15-34.15Q6.55-34.7 9.25-34.85 11.95-35 14.05-35L14.05-35Q18.4-35 22-33.98 25.6-32.95 28.18-30.78 30.75-28.6 32.15-25.28 33.55-21.95 33.55-17.35ZM63.9 0L40.45 0 40.45-34.65 62.7-34.65 62.7-29.3 46.75-29.3 46.75-20.75 60.95-20.75 60.95-15.5 46.75-15.5 46.75-5.35 63.9-5.35 63.9 0ZM85.7 0L79.65 0Q75.9-8.1 72.42-16.95 68.95-25.8 65.95-34.65L65.95-34.65 72.9-34.65Q74.1-31.15 75.35-27.5 76.6-23.85 77.85-20.33 79.1-16.8 80.35-13.5 81.6-10.2 82.8-7.45L82.8-7.45Q83.95-10.2 85.2-13.48 86.45-16.75 87.72-20.3 89-23.85 90.25-27.5 91.5-31.15 92.65-34.65L92.65-34.65 99.4-34.65Q96.35-25.8 92.9-16.95 89.45-8.1 85.7 0L85.7 0ZM126.89-34.65L126.89-30Q125.24-28.2 122.89-25.33 120.54-22.45 118.04-19.07 115.54-15.7 113.12-12.13 110.69-8.55 108.84-5.35L108.84-5.35 127.44-5.35 127.44 0 101.24 0 101.24-3.95Q102.24-5.8 103.57-7.98 104.89-10.15 106.39-12.45 107.89-14.75 109.52-17.1 111.14-19.45 112.74-21.63 114.34-23.8 115.87-25.78 117.39-27.75 118.74-29.3L118.74-29.3 102.09-29.3 102.09-34.65 126.89-34.65ZM136.84-17.35L136.84-17.35Q136.84-14.5 137.54-12.18 138.24-9.85 139.57-8.22 140.89-6.6 142.79-5.7 144.69-4.8 147.09-4.8L147.09-4.8Q149.44-4.8 151.34-5.7 153.24-6.6 154.57-8.22 155.89-9.85 156.59-12.18 157.29-14.5 157.29-17.35L157.29-17.35Q157.29-20.2 156.59-22.53 155.89-24.85 154.57-26.48 153.24-28.1 151.34-29 149.44-29.9 147.09-29.9L147.09-29.9Q144.69-29.9 142.79-29 140.89-28.1 139.57-26.45 138.24-24.8 137.54-22.5 136.84-20.2 136.84-17.35ZM163.89-17.35L163.89-17.35Q163.89-12.9 162.57-9.5 161.24-6.1 158.97-3.83 156.69-1.55 153.64-0.4 150.59 0.75 147.14 0.75L147.14 0.75Q143.69 0.75 140.62-0.4 137.54-1.55 135.27-3.83 132.99-6.1 131.64-9.5 130.29-12.9 130.29-17.35L130.29-17.35Q130.29-21.8 131.64-25.18 132.99-28.55 135.32-30.85 137.64-33.15 140.69-34.3 143.74-35.45 147.14-35.45L147.14-35.45Q150.54-35.45 153.59-34.3 156.64-33.15 158.92-30.85 161.19-28.55 162.54-25.18 163.89-21.8 163.89-17.35ZM199.74 0L192.94 0Q192.24-2.05 191.49-4.05 190.74-6.05 190.04-8.15L190.04-8.15 175.44-8.15Q174.74-6.05 174.01-4.03 173.29-2 172.59 0L172.59 0 166.04 0Q167.99-5.55 169.74-10.25 171.49-14.95 173.16-19.15 174.84-23.35 176.49-27.15 178.14-30.95 179.89-34.65L179.89-34.65 185.84-34.65Q187.59-30.95 189.24-27.15 190.89-23.35 192.56-19.15 194.24-14.95 196.01-10.25 197.79-5.55 199.74 0L199.74 0ZM182.74-27.95L182.74-27.95Q181.59-25.3 180.11-21.5 178.64-17.7 177.04-13.25L177.04-13.25 188.44-13.25Q186.84-17.7 185.34-21.55 183.84-25.4 182.74-27.95Z" opacity="1" transform="matrix(1,0,0,1,0,0)" fill="#e65728" class="undefined-text-0" data-fill-palette-color="primary" id="text-0"></path></svg></g></svg></g></svg></g></svg></g></svg></g></svg></g></svg></g></svg></g><defs><mask id="dd466b68-485f-4dcd-b6c2-9e18422f5bd5"><rect width="395.52" height="247.2" fill="white"></rect><g transform="matrix(1,0,0,1,0,79.16171206225681)" id="clone"><svg viewBox="0 0 395.52 88.87657587548637" height="88.87657587548637" width="395.52"><g><svg viewBox="0 0 395.52 88.87657587548637" height="88.87657587548637" width="395.52"><g><svg viewBox="0 0 395.52 88.87657587548637" height="88.87657587548637" width="395.52"><g><svg viewBox="0 0 395.52 88.87657587548637" height="88.87657587548637" width="395.52"><g id="SvgjsG1370"><svg viewBox="0 0 395.52 88.87657587548637" height="88.87657587548637" width="395.52" id="SvgjsSvg1369"><g><svg viewBox="0 0 395.52 88.87657587548637" height="88.87657587548637" width="395.52"><g transform="matrix(1,0,0,1,0,0)"><svg width="395.52" viewBox="-1.3499999046325684 -40.95000076293945 206.5900115966797 47.20000076293945" height="88.87657587548637" data-palette-color="#e65728"><path d="M10.45-29.4L10.45-5.2Q11-5.15 11.9-5.13 12.8-5.1 14.35-5.1L14.35-5.1Q20.7-5.1 23.83-8.33 26.95-11.55 26.95-17.35L26.95-17.35Q26.95-23.25 23.9-26.4 20.85-29.55 14.45-29.55L14.45-29.55Q11.65-29.55 10.45-29.4L10.45-29.4ZM33.55-17.35L33.55-17.35Q33.55-12.85 32.15-9.53 30.75-6.2 28.18-3.98 25.6-1.75 21.98-0.68 18.35 0.4 13.95 0.4L13.95 0.4Q11.85 0.4 9.2 0.23 6.55 0.05 4.15-0.5L4.15-0.5 4.15-34.15Q6.55-34.7 9.25-34.85 11.95-35 14.05-35L14.05-35Q18.4-35 22-33.98 25.6-32.95 28.18-30.78 30.75-28.6 32.15-25.28 33.55-21.95 33.55-17.35ZM63.9 0L40.45 0 40.45-34.65 62.7-34.65 62.7-29.3 46.75-29.3 46.75-20.75 60.95-20.75 60.95-15.5 46.75-15.5 46.75-5.35 63.9-5.35 63.9 0ZM85.7 0L79.65 0Q75.9-8.1 72.42-16.95 68.95-25.8 65.95-34.65L65.95-34.65 72.9-34.65Q74.1-31.15 75.35-27.5 76.6-23.85 77.85-20.33 79.1-16.8 80.35-13.5 81.6-10.2 82.8-7.45L82.8-7.45Q83.95-10.2 85.2-13.48 86.45-16.75 87.72-20.3 89-23.85 90.25-27.5 91.5-31.15 92.65-34.65L92.65-34.65 99.4-34.65Q96.35-25.8 92.9-16.95 89.45-8.1 85.7 0L85.7 0ZM126.89-34.65L126.89-30Q125.24-28.2 122.89-25.33 120.54-22.45 118.04-19.07 115.54-15.7 113.12-12.13 110.69-8.55 108.84-5.35L108.84-5.35 127.44-5.35 127.44 0 101.24 0 101.24-3.95Q102.24-5.8 103.57-7.98 104.89-10.15 106.39-12.45 107.89-14.75 109.52-17.1 111.14-19.45 112.74-21.63 114.34-23.8 115.87-25.78 117.39-27.75 118.74-29.3L118.74-29.3 102.09-29.3 102.09-34.65 126.89-34.65ZM136.84-17.35L136.84-17.35Q136.84-14.5 137.54-12.18 138.24-9.85 139.57-8.22 140.89-6.6 142.79-5.7 144.69-4.8 147.09-4.8L147.09-4.8Q149.44-4.8 151.34-5.7 153.24-6.6 154.57-8.22 155.89-9.85 156.59-12.18 157.29-14.5 157.29-17.35L157.29-17.35Q157.29-20.2 156.59-22.53 155.89-24.85 154.57-26.48 153.24-28.1 151.34-29 149.44-29.9 147.09-29.9L147.09-29.9Q144.69-29.9 142.79-29 140.89-28.1 139.57-26.45 138.24-24.8 137.54-22.5 136.84-20.2 136.84-17.35ZM163.89-17.35L163.89-17.35Q163.89-12.9 162.57-9.5 161.24-6.1 158.97-3.83 156.69-1.55 153.64-0.4 150.59 0.75 147.14 0.75L147.14 0.75Q143.69 0.75 140.62-0.4 137.54-1.55 135.27-3.83 132.99-6.1 131.64-9.5 130.29-12.9 130.29-17.35L130.29-17.35Q130.29-21.8 131.64-25.18 132.99-28.55 135.32-30.85 137.64-33.15 140.69-34.3 143.74-35.45 147.14-35.45L147.14-35.45Q150.54-35.45 153.59-34.3 156.64-33.15 158.92-30.85 161.19-28.55 162.54-25.18 163.89-21.8 163.89-17.35ZM199.74 0L192.94 0Q192.24-2.05 191.49-4.05 190.74-6.05 190.04-8.15L190.04-8.15 175.44-8.15Q174.74-6.05 174.01-4.03 173.29-2 172.59 0L172.59 0 166.04 0Q167.99-5.55 169.74-10.25 171.49-14.95 173.16-19.15 174.84-23.35 176.49-27.15 178.14-30.95 179.89-34.65L179.89-34.65 185.84-34.65Q187.59-30.95 189.24-27.15 190.89-23.35 192.56-19.15 194.24-14.95 196.01-10.25 197.79-5.55 199.74 0L199.74 0ZM182.74-27.95L182.74-27.95Q181.59-25.3 180.11-21.5 178.64-17.7 177.04-13.25L177.04-13.25 188.44-13.25Q186.84-17.7 185.34-21.55 183.84-25.4 182.74-27.95Z" opacity="1" transform="matrix(1,0,0,1,0,0)" fill="#e65728" class="undefined-text-0" data-fill-palette-color="primary" id="SvgjsPath1368" stroke-width="10" stroke="black" stroke-linejoin="round"></path></svg></g></svg></g></svg></g></svg></g></svg></g></svg></g></svg></g></mask></defs></svg><rect width="395.52" height="247.2" fill="none" stroke="none" visibility="hidden"></rect></g></svg></g></svg>